<!DOCTYPE svg PUBLIC "-//W3C//DTD SVG 1.1//EN" "http://www.w3.org/Graphics/SVG/1.1/DTD/svg11.dtd">
<!-- Uploaded to: SVG Repo, www.svgrepo.com, Transformed by: SVG Repo Mixer Tools -->
<svg height="800px" width="800px" version="1.1" id="Layer_1" xmlns="http://www.w3.org/2000/svg" xmlns:xlink="http://www.w3.org/1999/xlink" viewBox="0 0 473.654 473.654" xml:space="preserve" fill="#000000">
<g id="SVGRepo_bgCarrier" stroke-width="0"/>
<g id="SVGRepo_tracerCarrier" stroke-linecap="round" stroke-linejoin="round"/>
<g id="SVGRepo_iconCarrier"> <circle style="fill:#203d49;" cx="236.827" cy="236.827" r="236.827"/> <path style="fill:#FFFFFF;" d="M384.682,216.091c-27.011-27.011-54.018-54.022-81.029-81.033 c-25.56-25.564-65.08,14.259-39.456,39.883c11.009,11.009,22.019,22.019,33.028,33.032c-62.051,0-124.102,0-186.148,0 c-36.225,0-36.543,56.109-0.404,56.109c62.189,0,124.374,0,186.564,0c-11.084,11.084-22.168,22.168-33.252,33.252 c-25.564,25.56,14.259,65.08,39.883,39.456c27.011-27.007,54.018-54.014,81.029-81.025 C395.74,244.916,395.445,226.85,384.682,216.091z"/> </g>
</svg>